<svg xmlns="http://www.w3.org/2000/svg" width="1024" height="500" viewBox="0 0 1024 500">
  <defs>
    <linearGradient id="bg" x1="0" y1="0" x2="1" y2="1">
      <stop offset="0"    stop-color="#0B1113"/>
      <stop offset="0.45" stop-color="#0E1416"/>
      <stop offset="1"    stop-color="#161D1E"/>
    </linearGradient>
    <radialGradient id="glow" cx="0.5" cy="0.5" r="0.5">
      <stop offset="0"    stop-color="#2FD9F4" stop-opacity="0.22"/>
      <stop offset="0.65" stop-color="#2FD9F4" stop-opacity="0"/>
      <stop offset="1"    stop-color="#2FD9F4" stop-opacity="0"/>
    </radialGradient>
    <linearGradient id="accent" x1="0" y1="0" x2="1" y2="0">
      <stop offset="0" stop-color="#2FD9F4"/>
      <stop offset="1" stop-color="#8AEBFF"/>
    </linearGradient>
  </defs>
  <rect width="1024" height="500" fill="url(#bg)"/>
  <circle cx="778" cy="250" r="330" fill="url(#glow)"/>
  <circle cx="778" cy="250" r="228" fill="none" stroke="#2FD9F4" stroke-opacity="0.10" stroke-width="1.5"/>
  <circle cx="778" cy="250" r="182" fill="none" stroke="#8AEBFF" stroke-opacity="0.08" stroke-width="1.5"/>
  <!-- Icon geometry transformed, not redrawn, so the graphic and the launcher
       icon cannot drift apart. -->
  <g transform="translate(778,250) scale(5.2) translate(-54,-54)">
    <circle cx="54" cy="54" r="26" fill="none" stroke="#2FD9F4" stroke-width="3" stroke-opacity="0.55"/>
    <path fill="#2FD9F4" d="M54,36 C54,36 43,50.5 43,58.5 C43,64.8 47.9,69.5 54,69.5 C60.1,69.5 65,64.8 65,58.5 C65,50.5 54,36 54,36Z"/>
    <path fill="#8AEBFF" d="M49.5,58 C49.5,55.5 51,52.5 52.5,50.5 C51,54 50.8,56 51.2,58.2 C51.5,60 50.9,61 50.2,60.6 C49.7,60.2 49.5,59.2 49.5,58Z"/>
  </g>
  <rect x="64" y="150" width="72" height="5" rx="2.5" fill="url(#accent)"/>
  <text x="64" y="238" font-family="Arial" font-weight="bold" font-size="82" letter-spacing="-1" fill="#F2FAFC">AquaZeroFit</text>
  <text x="64" y="308" font-family="Arial" font-size="40" fill="#8AEBFF">Photograph a meal.</text>
  <text x="64" y="356" font-family="Arial" font-size="40" fill="#8AEBFF">See it counted.</text>
  <text x="64" y="410" font-family="Arial" font-size="26" fill="#9FB4B8">Targets you can check yourself.</text>
</svg>
